<svg viewBox="0 0 330 200" xmlns="http://www.w3.org/2000/svg"><g><g><g><g><g><line x1="41.0620002746582" y1="177.95999908447266" x2="36.0620002746582" y2="177.95999908447266" style="visibility: inherit;" fill="rgb(0, 0, 0)" stroke="rgb(204, 204, 204)" stroke-width="1px"></line><line x1="41.0620002746582" y1="163.1299991607666" x2="36.0620002746582" y2="163.1299991607666" style="visibility: inherit;" fill="rgb(0, 0, 0)" stroke="rgb(204, 204, 204)" stroke-width="1px"></line><line x1="41.0620002746582" y1="148.29999923706055" x2="36.0620002746582" y2="148.29999923706055" style="visibility: inherit;" fill="rgb(0, 0, 0)" stroke="rgb(204, 204, 204)" stroke-width="1px"></line><line x1="41.0620002746582" y1="133.4699993133545" x2="36.0620002746582" y2="133.4699993133545" style="visibility: inherit;" fill="rgb(0, 0, 0)" stroke="rgb(204, 204, 204)" stroke-width="1px"></line><line x1="41.0620002746582" y1="118.63999938964844" x2="36.0620002746582" y2="118.63999938964844" style="visibility: inherit;" fill="rgb(0, 0, 0)" stroke="rgb(204, 204, 204)" stroke-width="1px"></line><line x1="41.0620002746582" y1="103.80999946594238" x2="36.0620002746582" y2="103.80999946594238" style="visibility: inherit;" fill="rgb(0, 0, 0)" stroke="rgb(204, 204, 204)" stroke-width="1px"></line><line x1="41.0620002746582" y1="88.97999954223633" x2="36.0620002746582" y2="88.97999954223633" style="visibility: inherit;" fill="rgb(0, 0, 0)" stroke="rgb(204, 204, 204)" stroke-width="1px"></line><line x1="41.0620002746582" y1="74.14999961853027" x2="36.0620002746582" y2="74.14999961853027" style="visibility: inherit;" fill="rgb(0, 0, 0)" stroke="rgb(204, 204, 204)" stroke-width="1px"></line><line x1="41.0620002746582" y1="59.31999969482422" x2="36.0620002746582" y2="59.31999969482422" style="visibility: inherit;" fill="rgb(0, 0, 0)" stroke="rgb(204, 204, 204)" stroke-width="1px"></line><line x1="41.0620002746582" y1="44.489999771118164" x2="36.0620002746582" y2="44.489999771118164" style="visibility: inherit;" fill="rgb(0, 0, 0)" stroke="rgb(204, 204, 204)" stroke-width="1px"></line><line x1="41.0620002746582" y1="29.65999984741211" x2="36.0620002746582" y2="29.65999984741211" style="visibility: inherit;" fill="rgb(0, 0, 0)" stroke="rgb(204, 204, 204)" stroke-width="1px"></line><line x1="41.0620002746582" y1="14.829999923706055" x2="36.0620002746582" y2="14.829999923706055" style="visibility: inherit;" fill="rgb(0, 0, 0)" stroke="rgb(204, 204, 204)" stroke-width="1px"></line><line x1="41.0620002746582" y1="0" x2="36.0620002746582" y2="0" style="visibility: inherit;" fill="rgb(0, 0, 0)" stroke="rgb(204, 204, 204)" stroke-width="1px"></line></g><g transform="translate(31.062000274658203, 0)"><text style="text-anchor: end; visibility: hidden; font-family: &quot;Helvetica Neue&quot;, sans-serif; font-size: 12px; font-weight: 200;" x="0" y="177.95999908447266" dx="0em" dy="0.3em" fill="rgb(50, 49, 63)" stroke="none" stroke-width="1px">-10</text><text style="text-anchor: end; visibility: inherit; font-family: &quot;Helvetica Neue&quot;, sans-serif; font-size: 12px; font-weight: 200;" x="0" y="163.1299991607666" dx="0em" dy="0.3em" fill="rgb(50, 49, 63)" stroke="none" stroke-width="1px">0</text><text style="text-anchor: end; visibility: hidden; font-family: &quot;Helvetica Neue&quot;, sans-serif; font-size: 12px; font-weight: 200;" x="0" y="148.29999923706055" dx="0em" dy="0.3em" fill="rgb(50, 49, 63)" stroke="none" stroke-width="1px">10</text><text style="text-anchor: end; visibility: inherit; font-family: &quot;Helvetica Neue&quot;, sans-serif; font-size: 12px; font-weight: 200;" x="0" y="133.4699993133545" dx="0em" dy="0.3em" fill="rgb(50, 49, 63)" stroke="none" stroke-width="1px">20</text><text style="text-anchor: end; visibility: hidden; font-family: &quot;Helvetica Neue&quot;, sans-serif; font-size: 12px; font-weight: 200;" x="0" y="118.63999938964844" dx="0em" dy="0.3em" fill="rgb(50, 49, 63)" stroke="none" stroke-width="1px">30</text><text style="text-anchor: end; visibility: inherit; font-family: &quot;Helvetica Neue&quot;, sans-serif; font-size: 12px; font-weight: 200;" x="0" y="103.80999946594238" dx="0em" dy="0.3em" fill="rgb(50, 49, 63)" stroke="none" stroke-width="1px">40</text><text style="text-anchor: end; visibility: hidden; font-family: &quot;Helvetica Neue&quot;, sans-serif; font-size: 12px; font-weight: 200;" x="0" y="88.97999954223633" dx="0em" dy="0.3em" fill="rgb(50, 49, 63)" stroke="none" stroke-width="1px">50</text><text style="text-anchor: end; visibility: inherit; font-family: &quot;Helvetica Neue&quot;, sans-serif; font-size: 12px; font-weight: 200;" x="0" y="74.14999961853027" dx="0em" dy="0.3em" fill="rgb(50, 49, 63)" stroke="none" stroke-width="1px">60</text><text style="text-anchor: end; visibility: hidden; font-family: &quot;Helvetica Neue&quot;, sans-serif; font-size: 12px; font-weight: 200;" x="0" y="59.31999969482422" dx="0em" dy="0.3em" fill="rgb(50, 49, 63)" stroke="none" stroke-width="1px">70</text><text style="text-anchor: end; visibility: inherit; font-family: &quot;Helvetica Neue&quot;, sans-serif; font-size: 12px; font-weight: 200;" x="0" y="44.489999771118164" dx="0em" dy="0.3em" fill="rgb(50, 49, 63)" stroke="none" stroke-width="1px">80</text><text style="text-anchor: end; visibility: hidden; font-family: &quot;Helvetica Neue&quot;, sans-serif; font-size: 12px; font-weight: 200;" x="0" y="29.65999984741211" dx="0em" dy="0.3em" fill="rgb(50, 49, 63)" stroke="none" stroke-width="1px">90</text><text style="text-anchor: end; visibility: inherit; font-family: &quot;Helvetica Neue&quot;, sans-serif; font-size: 12px; font-weight: 200;" x="0" y="14.829999923706055" dx="0em" dy="0.3em" fill="rgb(50, 49, 63)" stroke="none" stroke-width="1px">100</text><text style="text-anchor: end; visibility: hidden; font-family: &quot;Helvetica Neue&quot;, sans-serif; font-size: 12px; font-weight: 200;" x="0" y="0" dx="0em" dy="0.3em" fill="rgb(50, 49, 63)" stroke="none" stroke-width="1px">110</text></g><line x1="41.0620002746582" y1="0" x2="41.0620002746582" y2="177.95999908447266" fill="rgb(0, 0, 0)" stroke="rgb(204, 204, 204)" stroke-width="1px"></line></g></g><g transform="translate(41, 0)" clip-path="url(#clip_0)"><clipPath id="clip_0"><rect width="288" height="177"></rect></clipPath><g><g><g><line x1="0" y1="0" x2="0" y2="177.95999908447266" fill="rgb(0, 0, 0)" stroke="rgb(60, 60, 60)" stroke-width="1px" opacity="0.25"></line><line x1="28.893799972534183" y1="0" x2="28.893799972534183" y2="177.95999908447266" fill="rgb(0, 0, 0)" stroke="rgb(60, 60, 60)" stroke-width="1px" opacity="0.25"></line><line x1="57.787599945068365" y1="0" x2="57.787599945068365" y2="177.95999908447266" fill="rgb(0, 0, 0)" stroke="rgb(60, 60, 60)" stroke-width="1px" opacity="0.25"></line><line x1="86.68139991760253" y1="0" x2="86.68139991760253" y2="177.95999908447266" fill="rgb(0, 0, 0)" stroke="rgb(60, 60, 60)" stroke-width="1px" opacity="0.25"></line><line x1="115.57519989013673" y1="0" x2="115.57519989013673" y2="177.95999908447266" fill="rgb(0, 0, 0)" stroke="rgb(60, 60, 60)" stroke-width="1px" opacity="0.25"></line><line x1="144.4689998626709" y1="0" x2="144.4689998626709" y2="177.95999908447266" fill="rgb(0, 0, 0)" stroke="rgb(60, 60, 60)" stroke-width="1px" opacity="0.25"></line><line x1="173.36279983520507" y1="0" x2="173.36279983520507" y2="177.95999908447266" fill="rgb(0, 0, 0)" stroke="rgb(60, 60, 60)" stroke-width="1px" opacity="0.25"></line><line x1="202.25659980773924" y1="0" x2="202.25659980773924" y2="177.95999908447266" fill="rgb(0, 0, 0)" stroke="rgb(60, 60, 60)" stroke-width="1px" opacity="0.25"></line><line x1="231.15039978027346" y1="0" x2="231.15039978027346" y2="177.95999908447266" fill="rgb(0, 0, 0)" stroke="rgb(60, 60, 60)" stroke-width="1px" opacity="0.25"></line><line x1="260.04419975280763" y1="0" x2="260.04419975280763" y2="177.95999908447266" fill="rgb(0, 0, 0)" stroke="rgb(60, 60, 60)" stroke-width="1px" opacity="0.25"></line><line x1="288.9379997253418" y1="0" x2="288.9379997253418" y2="177.95999908447266" fill="rgb(0, 0, 0)" stroke="rgb(60, 60, 60)" stroke-width="1px" opacity="0.25"></line></g><g><line x1="0" y1="177.95999908447266" x2="288.9379997253418" y2="177.95999908447266" fill="rgb(0, 0, 0)" stroke="rgb(60, 60, 60)" stroke-width="1px" opacity="0.25"></line><line x1="0" y1="163.1299991607666" x2="288.9379997253418" y2="163.1299991607666" fill="rgb(0, 0, 0)" stroke="rgb(60, 60, 60)" stroke-width="1px" opacity="0.25"></line><line x1="0" y1="148.29999923706055" x2="288.9379997253418" y2="148.29999923706055" fill="rgb(0, 0, 0)" stroke="rgb(60, 60, 60)" stroke-width="1px" opacity="0.25"></line><line x1="0" y1="133.4699993133545" x2="288.9379997253418" y2="133.4699993133545" fill="rgb(0, 0, 0)" stroke="rgb(60, 60, 60)" stroke-width="1px" opacity="0.25"></line><line x1="0" y1="118.63999938964844" x2="288.9379997253418" y2="118.63999938964844" fill="rgb(0, 0, 0)" stroke="rgb(60, 60, 60)" stroke-width="1px" opacity="0.25"></line><line x1="0" y1="103.80999946594238" x2="288.9379997253418" y2="103.80999946594238" fill="rgb(0, 0, 0)" stroke="rgb(60, 60, 60)" stroke-width="1px" opacity="0.25"></line><line x1="0" y1="88.97999954223633" x2="288.9379997253418" y2="88.97999954223633" fill="rgb(0, 0, 0)" stroke="rgb(60, 60, 60)" stroke-width="1px" opacity="0.25"></line><line x1="0" y1="74.14999961853027" x2="288.9379997253418" y2="74.14999961853027" fill="rgb(0, 0, 0)" stroke="rgb(60, 60, 60)" stroke-width="1px" opacity="0.25"></line><line x1="0" y1="59.31999969482422" x2="288.9379997253418" y2="59.31999969482422" fill="rgb(0, 0, 0)" stroke="rgb(60, 60, 60)" stroke-width="1px" opacity="0.25"></line><line x1="0" y1="44.489999771118164" x2="288.9379997253418" y2="44.489999771118164" fill="rgb(0, 0, 0)" stroke="rgb(60, 60, 60)" stroke-width="1px" opacity="0.25"></line><line x1="0" y1="29.65999984741211" x2="288.9379997253418" y2="29.65999984741211" fill="rgb(0, 0, 0)" stroke="rgb(60, 60, 60)" stroke-width="1px" opacity="0.25"></line><line x1="0" y1="14.829999923706055" x2="288.9379997253418" y2="14.829999923706055" fill="rgb(0, 0, 0)" stroke="rgb(60, 60, 60)" stroke-width="1px" opacity="0.25"></line><line x1="0" y1="0" x2="288.9379997253418" y2="0" fill="rgb(0, 0, 0)" stroke="rgb(60, 60, 60)" stroke-width="1px" opacity="0.25"></line></g></g></g><g><g><line x1="0" y1="163.1299991607666" x2="288.9379997253418" y2="163.1299991607666" fill="rgb(0, 0, 0)" stroke="rgb(153, 153, 153)" stroke-width="1.5px"></line></g></g><g><g><line x1="28.893799972534183" y1="0" x2="28.893799972534183" y2="177.95999908447266" fill="rgb(0, 0, 0)" stroke="rgb(153, 153, 153)" stroke-width="1.5px"></line></g></g><g><g><g><g><g><path style="fill: none;" stroke="rgb(204, 51, 17)" stroke-width="2px" d="M28.893799972534183,14.829999923706055L31.783179969787597,19.278999900817865L34.67255996704102,23.727999877929676L37.56193996429443,38.55799980163573L40.45131996154785,43.00699977874757L43.34069995880127,51.90499973297119L46.23007995605469,63.76899967193603L49.11945995330811,77.11599960327149L52.00883995056152,77.11599960327149L54.898219947814944,99.36099948883057L57.787599945068365,111.22499942779541L60.67697994232177,108.2589994430542L63.56635993957519,109.7419994354248L66.45573993682862,117.15699939727783L69.34511993408204,114.19099941253663L72.23449993133545,124.57199935913087L75.12387992858886,121.60599937438965L78.01325992584229,129.02099933624268L80.9026399230957,123.08899936676025L83.79201992034912,118.63999938964844L86.68139991760253,131.9869993209839L89.57077991485596,129.02099933624268L92.46015991210938,145.33399925231933L95.3495399093628,145.33399925231933L98.23891990661622,146.81699924468995L101.12829990386962,149.78299922943114L104.01767990112305,151.26599922180176L106.90705989837646,152.74899921417236L109.79643989562989,149.78299922943114L112.6858198928833,152.74899921417236L115.57519989013673,154.23199920654298" fill="none"></path></g><g><path style="fill: none;" stroke="rgb(0, 119, 187)" stroke-width="2px" d="M28.893799972534183,14.829999923706055L31.783179969787597,14.829999923706055L34.67255996704102,17.79599990844727L37.56193996429443,23.727999877929676L40.45131996154785,23.727999877929676L43.34069995880127,34.10899982452392L46.23007995605469,40.04099979400635L49.11945995330811,48.938999748229975L52.00883995056152,54.87099971771241L54.898219947814944,51.90499973297119L57.787599945068365,83.04799957275391L60.67697994232177,75.63299961090088L63.56635993957519,84.5309995651245L66.45573993682862,83.04799957275391L69.34511993408204,81.5649995803833L72.23449993133545,66.73499965667725L75.12387992858886,90.46299953460694L78.01325992584229,94.91199951171875L80.9026399230957,88.97999954223633L83.79201992034912,111.22499942779541L86.68139991760253,108.2589994430542L89.57077991485596,108.2589994430542L92.46015991210938,90.46299953460694L95.3495399093628,114.19099941253663L98.23891990661622,143.85099925994874L101.12829990386962,146.81699924468995L104.01767990112305,145.33399925231933L106.90705989837646,148.29999923706055L109.79643989562989,145.33399925231933L112.6858198928833,139.40199928283693L115.57519989013673,137.9189992904663L118.46457988739013,151.26599922180176L121.35395988464354,142.3679992675781L124.24333988189697,151.26599922180176L127.13271987915039,148.29999923706055L130.02209987640381,137.9189992904663L132.91147987365724,145.33399925231933L135.80085987091064,146.81699924468995L138.69023986816407,149.78299922943114L141.57961986541747,149.78299922943114L144.4689998626709,146.81699924468995L147.35837985992433,149.78299922943114L150.24775985717773,148.29999923706055L153.13713985443115,142.3679992675781L156.02651985168458,148.29999923706055L158.915899848938,146.81699924468995L161.8052798461914,140.88499927520752L164.6946598434448,148.29999923706055L167.58403984069824,149.78299922943114L170.47341983795164,137.9189992904663L173.36279983520507,140.88499927520752L176.2521798324585,143.85099925994874L179.14155982971192,149.78299922943114L182.03093982696532,139.40199928283693L184.92031982421875,136.4359992980957L187.80969982147218,140.88499927520752L190.6990798187256,155.71499919891357" fill="none"></path></g><g><path style="fill: none;" stroke="rgb(255, 112, 67)" stroke-width="2px" d="M28.893799972534183,14.829999923706055L31.783179969787597,20.761999893188488L34.67255996704102,34.10899982452392L37.56193996429443,50.42199974060058L40.45131996154785,60.80299968719483L43.34069995880127,65.25199966430665L46.23007995605469,57.83699970245361L49.11945995330811,77.11599960327149L52.00883995056152,80.08199958801269L54.898219947814944,60.80299968719483L57.787599945068365,93.42899951934815L60.67697994232177,87.49699954986573L63.56635993957519,84.5309995651245L66.45573993682862,84.5309995651245L69.34511993408204,96.39499950408936L72.23449993133545,99.36099948883057L75.12387992858886,108.2589994430542L78.01325992584229,106.77599945068359L80.9026399230957,105.29299945831299L83.79201992034912,106.77599945068359L86.68139991760253,109.7419994354248L89.57077991485596,102.32699947357177L92.46015991210938,102.32699947357177L95.3495399093628,100.84399948120117L98.23891990661622,90.46299953460694L101.12829990386962,96.39499950408936L104.01767990112305,105.29299945831299L106.90705989837646,106.77599945068359L109.79643989562989,105.29299945831299L112.6858198928833,91.94599952697754L115.57519989013673,130.50399932861328L118.46457988739013,133.4699993133545L121.35395988464354,121.60599937438965L124.24333988189697,130.50399932861328L127.13271987915039,118.63999938964844L130.02209987640381,120.12299938201903L132.91147987365724,133.4699993133545L135.80085987091064,133.4699993133545L138.69023986816407,130.50399932861328L141.57961986541747,140.88499927520752L144.4689998626709,117.15699939727783L147.35837985992433,137.9189992904663L150.24775985717773,134.9529993057251L153.13713985443115,118.63999938964844L156.02651985168458,133.4699993133545L158.915899848938,148.29999923706055L161.8052798461914,148.29999923706055L164.6946598434448,151.26599922180176L167.58403984069824,137.9189992904663L170.47341983795164,143.85099925994874L173.36279983520507,146.81699924468995L176.2521798324585,137.9189992904663L179.14155982971192,148.29999923706055L182.03093982696532,142.3679992675781L184.92031982421875,146.81699924468995L187.80969982147218,145.33399925231933L190.6990798187256,136.4359992980957L193.588459815979,140.88499927520752L196.47783981323244,143.85099925994874L199.36721981048584,145.33399925231933L202.25659980773924,136.4359992980957L205.14597980499266,136.4359992980957L208.0353598022461,145.33399925231933L210.92473979949952,136.4359992980957L213.81411979675292,145.33399925231933L216.70349979400635,149.78299922943114L219.59287979125978,148.29999923706055L222.48225978851318,136.4359992980957L225.3716397857666,148.29999923706055L228.26101978302003,151.26599922180176L231.15039978027346,145.33399925231933L234.03977977752686,149.78299922943114L236.92915977478026,145.33399925231933L239.8185397720337,136.4359992980957L242.7079197692871,133.4699993133545L245.59729976654052,142.3679992675781L248.48667976379394,142.3679992675781L251.37605976104737,145.33399925231933L254.26543975830077,139.40199928283693L257.15481975555423,142.3679992675781L260.04419975280763,139.40199928283693L262.933579750061,152.74899921417236L265.8229597473145,148.29999923706055L268.7123397445679,149.78299922943114L271.6017197418213,143.85099925994874L274.4910997390747,143.85099925994874L277.38047973632814,154.23199920654298" fill="none"></path></g><g><path style="fill: none;" stroke="rgb(51, 187, 238)" stroke-width="2px" d="M28.893799972534183,14.829999923706055L31.783179969787597,26.693999862670893L34.67255996704102,32.625999832153326L37.56193996429443,44.489999771118164L40.45131996154785,43.00699977874757L43.34069995880127,50.42199974060058L46.23007995605469,57.83699970245361L49.11945995330811,69.70099964141846L52.00883995056152,69.70099964141846L54.898219947814944,75.63299961090088L57.787599945068365,75.63299961090088L60.67697994232177,66.73499965667725L63.56635993957519,77.11599960327149L66.45573993682862,97.87799949645996L69.34511993408204,90.46299953460694L72.23449993133545,81.5649995803833L75.12387992858886,103.80999946594238L78.01325992584229,102.32699947357177L80.9026399230957,109.7419994354248L83.79201992034912,114.19099941253663L86.68139991760253,118.63999938964844L89.57077991485596,121.60599937438965L92.46015991210938,121.60599937438965L95.3495399093628,117.15699939727783L98.23891990661622,117.15699939727783L101.12829990386962,139.40199928283693L104.01767990112305,131.9869993209839L106.90705989837646,129.02099933624268L109.79643989562989,130.50399932861328L112.6858198928833,130.50399932861328L115.57519989013673,121.60599937438965L118.46457988739013,127.53799934387207L121.35395988464354,123.08899936676025L124.24333988189697,126.05499935150146L127.13271987915039,117.15699939727783L130.02209987640381,140.88499927520752L132.91147987365724,123.08899936676025L135.80085987091064,151.26599922180176L138.69023986816407,143.85099925994874L141.57961986541747,136.4359992980957L144.4689998626709,137.9189992904663L147.35837985992433,145.33399925231933L150.24775985717773,137.9189992904663L153.13713985443115,145.33399925231933L156.02651985168458,145.33399925231933L158.915899848938,146.81699924468995L161.8052798461914,145.33399925231933L164.6946598434448,152.74899921417236L167.58403984069824,149.78299922943114L170.47341983795164,151.26599922180176L173.36279983520507,152.74899921417236L176.2521798324585,152.74899921417236L179.14155982971192,149.78299922943114L182.03093982696532,152.74899921417236L184.92031982421875,152.74899921417236L187.80969982147218,149.78299922943114L190.6990798187256,152.74899921417236L193.588459815979,154.23199920654298" fill="none"></path></g></g></g></g></g></g><g transform="translate(41, 177)" clip-path="url(#clip_1)"><clipPath id="clip_1"><rect width="288" height="22"></rect></clipPath><g><g><line x1="0" y1="0" x2="0" y2="5" style="visibility: inherit;" fill="rgb(0, 0, 0)" stroke="rgb(204, 204, 204)" stroke-width="1px"></line><line x1="28.893799972534183" y1="0" x2="28.893799972534183" y2="5" style="visibility: inherit;" fill="rgb(0, 0, 0)" stroke="rgb(204, 204, 204)" stroke-width="1px"></line><line x1="57.787599945068365" y1="0" x2="57.787599945068365" y2="5" style="visibility: inherit;" fill="rgb(0, 0, 0)" stroke="rgb(204, 204, 204)" stroke-width="1px"></line><line x1="86.68139991760253" y1="0" x2="86.68139991760253" y2="5" style="visibility: inherit;" fill="rgb(0, 0, 0)" stroke="rgb(204, 204, 204)" stroke-width="1px"></line><line x1="115.57519989013673" y1="0" x2="115.57519989013673" y2="5" style="visibility: inherit;" fill="rgb(0, 0, 0)" stroke="rgb(204, 204, 204)" stroke-width="1px"></line><line x1="144.4689998626709" y1="0" x2="144.4689998626709" y2="5" style="visibility: inherit;" fill="rgb(0, 0, 0)" stroke="rgb(204, 204, 204)" stroke-width="1px"></line><line x1="173.36279983520507" y1="0" x2="173.36279983520507" y2="5" style="visibility: inherit;" fill="rgb(0, 0, 0)" stroke="rgb(204, 204, 204)" stroke-width="1px"></line><line x1="202.25659980773924" y1="0" x2="202.25659980773924" y2="5" style="visibility: inherit;" fill="rgb(0, 0, 0)" stroke="rgb(204, 204, 204)" stroke-width="1px"></line><line x1="231.15039978027346" y1="0" x2="231.15039978027346" y2="5" style="visibility: inherit;" fill="rgb(0, 0, 0)" stroke="rgb(204, 204, 204)" stroke-width="1px"></line><line x1="260.04419975280763" y1="0" x2="260.04419975280763" y2="5" style="visibility: inherit;" fill="rgb(0, 0, 0)" stroke="rgb(204, 204, 204)" stroke-width="1px"></line><line x1="288.9379997253418" y1="0" x2="288.9379997253418" y2="5" style="visibility: inherit;" fill="rgb(0, 0, 0)" stroke="rgb(204, 204, 204)" stroke-width="1px"></line></g><g transform="translate(0, 8)"><text style="text-anchor: middle; visibility: hidden; font-family: &quot;Helvetica Neue&quot;, sans-serif; font-size: 12px; font-weight: 200;" x="0" y="0" dx="0em" dy="0.95em" fill="rgb(50, 49, 63)" stroke="none" stroke-width="1px">-10</text><text style="text-anchor: middle; visibility: inherit; font-family: &quot;Helvetica Neue&quot;, sans-serif; font-size: 12px; font-weight: 200;" x="28.893799972534183" y="0" dx="0em" dy="0.95em" fill="rgb(50, 49, 63)" stroke="none" stroke-width="1px">0</text><text style="text-anchor: middle; visibility: inherit; font-family: &quot;Helvetica Neue&quot;, sans-serif; font-size: 12px; font-weight: 200;" x="57.787599945068365" y="0" dx="0em" dy="0.95em" fill="rgb(50, 49, 63)" stroke="none" stroke-width="1px">10</text><text style="text-anchor: middle; visibility: inherit; font-family: &quot;Helvetica Neue&quot;, sans-serif; font-size: 12px; font-weight: 200;" x="86.68139991760253" y="0" dx="0em" dy="0.95em" fill="rgb(50, 49, 63)" stroke="none" stroke-width="1px">20</text><text style="text-anchor: middle; visibility: inherit; font-family: &quot;Helvetica Neue&quot;, sans-serif; font-size: 12px; font-weight: 200;" x="115.57519989013673" y="0" dx="0em" dy="0.95em" fill="rgb(50, 49, 63)" stroke="none" stroke-width="1px">30</text><text style="text-anchor: middle; visibility: inherit; font-family: &quot;Helvetica Neue&quot;, sans-serif; font-size: 12px; font-weight: 200;" x="144.4689998626709" y="0" dx="0em" dy="0.95em" fill="rgb(50, 49, 63)" stroke="none" stroke-width="1px">40</text><text style="text-anchor: middle; visibility: inherit; font-family: &quot;Helvetica Neue&quot;, sans-serif; font-size: 12px; font-weight: 200;" x="173.36279983520507" y="0" dx="0em" dy="0.95em" fill="rgb(50, 49, 63)" stroke="none" stroke-width="1px">50</text><text style="text-anchor: middle; visibility: inherit; font-family: &quot;Helvetica Neue&quot;, sans-serif; font-size: 12px; font-weight: 200;" x="202.25659980773924" y="0" dx="0em" dy="0.95em" fill="rgb(50, 49, 63)" stroke="none" stroke-width="1px">60</text><text style="text-anchor: middle; visibility: inherit; font-family: &quot;Helvetica Neue&quot;, sans-serif; font-size: 12px; font-weight: 200;" x="231.15039978027346" y="0" dx="0em" dy="0.95em" fill="rgb(50, 49, 63)" stroke="none" stroke-width="1px">70</text><text style="text-anchor: middle; visibility: inherit; font-family: &quot;Helvetica Neue&quot;, sans-serif; font-size: 12px; font-weight: 200;" x="260.04419975280763" y="0" dx="0em" dy="0.95em" fill="rgb(50, 49, 63)" stroke="none" stroke-width="1px">80</text><text style="text-anchor: middle; visibility: hidden; font-family: &quot;Helvetica Neue&quot;, sans-serif; font-size: 12px; font-weight: 200;" x="288.9379997253418" y="0" dx="0em" dy="0.95em" fill="rgb(50, 49, 63)" stroke="none" stroke-width="1px">90</text></g><line x1="0" y1="0" x2="288.9379997253418" y2="0" fill="rgb(0, 0, 0)" stroke="rgb(204, 204, 204)" stroke-width="1px"></line></g></g></g></g></svg>