<svg viewBox="0 0 330 200" xmlns="http://www.w3.org/2000/svg"><g><g><g><g><g><line x1="51.41600036621094" y1="177.95999908447266" x2="46.41600036621094" y2="177.95999908447266" style="visibility: inherit;" fill="rgb(0, 0, 0)" stroke="rgb(204, 204, 204)" stroke-width="1px"></line><line x1="51.41600036621094" y1="161.7818173495206" x2="46.41600036621094" y2="161.7818173495206" style="visibility: inherit;" fill="rgb(0, 0, 0)" stroke="rgb(204, 204, 204)" stroke-width="1px"></line><line x1="51.41600036621094" y1="145.60363561456853" x2="46.41600036621094" y2="145.60363561456853" style="visibility: inherit;" fill="rgb(0, 0, 0)" stroke="rgb(204, 204, 204)" stroke-width="1px"></line><line x1="51.41600036621094" y1="129.4254538796165" x2="46.41600036621094" y2="129.4254538796165" style="visibility: inherit;" fill="rgb(0, 0, 0)" stroke="rgb(204, 204, 204)" stroke-width="1px"></line><line x1="51.41600036621094" y1="113.24727214466442" x2="46.41600036621094" y2="113.24727214466442" style="visibility: inherit;" fill="rgb(0, 0, 0)" stroke="rgb(204, 204, 204)" stroke-width="1px"></line><line x1="51.41600036621094" y1="97.06909040971236" x2="46.41600036621094" y2="97.06909040971236" style="visibility: inherit;" fill="rgb(0, 0, 0)" stroke="rgb(204, 204, 204)" stroke-width="1px"></line><line x1="51.41600036621094" y1="80.89090867476031" x2="46.41600036621094" y2="80.89090867476031" style="visibility: inherit;" fill="rgb(0, 0, 0)" stroke="rgb(204, 204, 204)" stroke-width="1px"></line><line x1="51.41600036621094" y1="64.71272693980823" x2="46.41600036621094" y2="64.71272693980823" style="visibility: inherit;" fill="rgb(0, 0, 0)" stroke="rgb(204, 204, 204)" stroke-width="1px"></line><line x1="51.41600036621094" y1="48.53454520485619" x2="46.41600036621094" y2="48.53454520485619" style="visibility: inherit;" fill="rgb(0, 0, 0)" stroke="rgb(204, 204, 204)" stroke-width="1px"></line><line x1="51.41600036621094" y1="32.356363469904124" x2="46.41600036621094" y2="32.356363469904124" style="visibility: inherit;" fill="rgb(0, 0, 0)" stroke="rgb(204, 204, 204)" stroke-width="1px"></line><line x1="51.41600036621094" y1="16.178181734952062" x2="46.41600036621094" y2="16.178181734952062" style="visibility: inherit;" fill="rgb(0, 0, 0)" stroke="rgb(204, 204, 204)" stroke-width="1px"></line><line x1="51.41600036621094" y1="0" x2="46.41600036621094" y2="0" style="visibility: inherit;" fill="rgb(0, 0, 0)" stroke="rgb(204, 204, 204)" stroke-width="1px"></line></g><g transform="translate(41.41600036621094, 0)"><text style="text-anchor: end; visibility: hidden; font-family: &quot;Helvetica Neue&quot;, sans-serif; font-size: 12px; font-weight: 200;" x="0" y="177.95999908447266" dx="0em" dy="0.3em" fill="rgb(50, 49, 63)" stroke="none" stroke-width="1px">-0.5</text><text style="text-anchor: end; visibility: inherit; font-family: &quot;Helvetica Neue&quot;, sans-serif; font-size: 12px; font-weight: 200;" x="0" y="161.7818173495206" dx="0em" dy="0.3em" fill="rgb(50, 49, 63)" stroke="none" stroke-width="1px">0</text><text style="text-anchor: end; visibility: hidden; font-family: &quot;Helvetica Neue&quot;, sans-serif; font-size: 12px; font-weight: 200;" x="0" y="145.60363561456853" dx="0em" dy="0.3em" fill="rgb(50, 49, 63)" stroke="none" stroke-width="1px">0.5</text><text style="text-anchor: end; visibility: inherit; font-family: &quot;Helvetica Neue&quot;, sans-serif; font-size: 12px; font-weight: 200;" x="0" y="129.4254538796165" dx="0em" dy="0.3em" fill="rgb(50, 49, 63)" stroke="none" stroke-width="1px">1</text><text style="text-anchor: end; visibility: hidden; font-family: &quot;Helvetica Neue&quot;, sans-serif; font-size: 12px; font-weight: 200;" x="0" y="113.24727214466442" dx="0em" dy="0.3em" fill="rgb(50, 49, 63)" stroke="none" stroke-width="1px">1.5</text><text style="text-anchor: end; visibility: inherit; font-family: &quot;Helvetica Neue&quot;, sans-serif; font-size: 12px; font-weight: 200;" x="0" y="97.06909040971236" dx="0em" dy="0.3em" fill="rgb(50, 49, 63)" stroke="none" stroke-width="1px">2</text><text style="text-anchor: end; visibility: hidden; font-family: &quot;Helvetica Neue&quot;, sans-serif; font-size: 12px; font-weight: 200;" x="0" y="80.89090867476031" dx="0em" dy="0.3em" fill="rgb(50, 49, 63)" stroke="none" stroke-width="1px">2.5</text><text style="text-anchor: end; visibility: inherit; font-family: &quot;Helvetica Neue&quot;, sans-serif; font-size: 12px; font-weight: 200;" x="0" y="64.71272693980823" dx="0em" dy="0.3em" fill="rgb(50, 49, 63)" stroke="none" stroke-width="1px">3</text><text style="text-anchor: end; visibility: hidden; font-family: &quot;Helvetica Neue&quot;, sans-serif; font-size: 12px; font-weight: 200;" x="0" y="48.53454520485619" dx="0em" dy="0.3em" fill="rgb(50, 49, 63)" stroke="none" stroke-width="1px">3.5</text><text style="text-anchor: end; visibility: inherit; font-family: &quot;Helvetica Neue&quot;, sans-serif; font-size: 12px; font-weight: 200;" x="0" y="32.356363469904124" dx="0em" dy="0.3em" fill="rgb(50, 49, 63)" stroke="none" stroke-width="1px">4</text><text style="text-anchor: end; visibility: hidden; font-family: &quot;Helvetica Neue&quot;, sans-serif; font-size: 12px; font-weight: 200;" x="0" y="16.178181734952062" dx="0em" dy="0.3em" fill="rgb(50, 49, 63)" stroke="none" stroke-width="1px">4.5</text><text style="text-anchor: end; visibility: hidden; font-family: &quot;Helvetica Neue&quot;, sans-serif; font-size: 12px; font-weight: 200;" x="0" y="0" dx="0em" dy="0.3em" fill="rgb(50, 49, 63)" stroke="none" stroke-width="1px">5</text></g><line x1="51.41600036621094" y1="0" x2="51.41600036621094" y2="177.95999908447266" fill="rgb(0, 0, 0)" stroke="rgb(204, 204, 204)" stroke-width="1px"></line></g></g><g transform="translate(51, 0)" clip-path="url(#clip_0)"><clipPath id="clip_0"><rect width="278" height="177"></rect></clipPath><g><g><g><line x1="0" y1="0" x2="0" y2="177.95999908447266" fill="rgb(0, 0, 0)" stroke="rgb(60, 60, 60)" stroke-width="1px" opacity="0.25"></line><line x1="27.858399963378908" y1="0" x2="27.858399963378908" y2="177.95999908447266" fill="rgb(0, 0, 0)" stroke="rgb(60, 60, 60)" stroke-width="1px" opacity="0.25"></line><line x1="55.716799926757815" y1="0" x2="55.716799926757815" y2="177.95999908447266" fill="rgb(0, 0, 0)" stroke="rgb(60, 60, 60)" stroke-width="1px" opacity="0.25"></line><line x1="83.57519989013672" y1="0" x2="83.57519989013672" y2="177.95999908447266" fill="rgb(0, 0, 0)" stroke="rgb(60, 60, 60)" stroke-width="1px" opacity="0.25"></line><line x1="111.43359985351563" y1="0" x2="111.43359985351563" y2="177.95999908447266" fill="rgb(0, 0, 0)" stroke="rgb(60, 60, 60)" stroke-width="1px" opacity="0.25"></line><line x1="139.29199981689453" y1="0" x2="139.29199981689453" y2="177.95999908447266" fill="rgb(0, 0, 0)" stroke="rgb(60, 60, 60)" stroke-width="1px" opacity="0.25"></line><line x1="167.15039978027343" y1="0" x2="167.15039978027343" y2="177.95999908447266" fill="rgb(0, 0, 0)" stroke="rgb(60, 60, 60)" stroke-width="1px" opacity="0.25"></line><line x1="195.00879974365233" y1="0" x2="195.00879974365233" y2="177.95999908447266" fill="rgb(0, 0, 0)" stroke="rgb(60, 60, 60)" stroke-width="1px" opacity="0.25"></line><line x1="222.86719970703126" y1="0" x2="222.86719970703126" y2="177.95999908447266" fill="rgb(0, 0, 0)" stroke="rgb(60, 60, 60)" stroke-width="1px" opacity="0.25"></line><line x1="250.72559967041016" y1="0" x2="250.72559967041016" y2="177.95999908447266" fill="rgb(0, 0, 0)" stroke="rgb(60, 60, 60)" stroke-width="1px" opacity="0.25"></line><line x1="278.58399963378906" y1="0" x2="278.58399963378906" y2="177.95999908447266" fill="rgb(0, 0, 0)" stroke="rgb(60, 60, 60)" stroke-width="1px" opacity="0.25"></line></g><g><line x1="0" y1="177.95999908447266" x2="278.58399963378906" y2="177.95999908447266" fill="rgb(0, 0, 0)" stroke="rgb(60, 60, 60)" stroke-width="1px" opacity="0.25"></line><line x1="0" y1="161.7818173495206" x2="278.58399963378906" y2="161.7818173495206" fill="rgb(0, 0, 0)" stroke="rgb(60, 60, 60)" stroke-width="1px" opacity="0.25"></line><line x1="0" y1="145.60363561456853" x2="278.58399963378906" y2="145.60363561456853" fill="rgb(0, 0, 0)" stroke="rgb(60, 60, 60)" stroke-width="1px" opacity="0.25"></line><line x1="0" y1="129.4254538796165" x2="278.58399963378906" y2="129.4254538796165" fill="rgb(0, 0, 0)" stroke="rgb(60, 60, 60)" stroke-width="1px" opacity="0.25"></line><line x1="0" y1="113.24727214466442" x2="278.58399963378906" y2="113.24727214466442" fill="rgb(0, 0, 0)" stroke="rgb(60, 60, 60)" stroke-width="1px" opacity="0.25"></line><line x1="0" y1="97.06909040971236" x2="278.58399963378906" y2="97.06909040971236" fill="rgb(0, 0, 0)" stroke="rgb(60, 60, 60)" stroke-width="1px" opacity="0.25"></line><line x1="0" y1="80.89090867476031" x2="278.58399963378906" y2="80.89090867476031" fill="rgb(0, 0, 0)" stroke="rgb(60, 60, 60)" stroke-width="1px" opacity="0.25"></line><line x1="0" y1="64.71272693980823" x2="278.58399963378906" y2="64.71272693980823" fill="rgb(0, 0, 0)" stroke="rgb(60, 60, 60)" stroke-width="1px" opacity="0.25"></line><line x1="0" y1="48.53454520485619" x2="278.58399963378906" y2="48.53454520485619" fill="rgb(0, 0, 0)" stroke="rgb(60, 60, 60)" stroke-width="1px" opacity="0.25"></line><line x1="0" y1="32.356363469904124" x2="278.58399963378906" y2="32.356363469904124" fill="rgb(0, 0, 0)" stroke="rgb(60, 60, 60)" stroke-width="1px" opacity="0.25"></line><line x1="0" y1="16.178181734952062" x2="278.58399963378906" y2="16.178181734952062" fill="rgb(0, 0, 0)" stroke="rgb(60, 60, 60)" stroke-width="1px" opacity="0.25"></line><line x1="0" y1="0" x2="278.58399963378906" y2="0" fill="rgb(0, 0, 0)" stroke="rgb(60, 60, 60)" stroke-width="1px" opacity="0.25"></line></g></g></g><g><g><line x1="0" y1="161.7818173495206" x2="278.58399963378906" y2="161.7818173495206" fill="rgb(0, 0, 0)" stroke="rgb(153, 153, 153)" stroke-width="1.5px"></line></g></g><g><g><line x1="27.858399963378908" y1="0" x2="27.858399963378908" y2="177.95999908447266" fill="rgb(0, 0, 0)" stroke="rgb(153, 153, 153)" stroke-width="1.5px"></line></g></g><g><g><g><g><g><path style="fill: none;" stroke="rgb(204, 51, 17)" stroke-width="2px" d="M27.858399963378908,10.087032498571546L30.644239959716796,20.121684504942095L33.43007995605468,28.35727103470046L36.21591995239258,31.62715604637063L39.001759948730474,30.453910164650125L41.78759994506836,36.7823993455161L44.57343994140625,39.2397695794144L47.35927993774414,42.147928334927684L50.14511993408203,44.32378620926795L52.930959930419924,44.62578018985599L55.716799926757815,47.82519453933821L58.5026399230957,50.503758566002276L61.28847991943359,51.95625650032723L64.07431991577148,54.818005676888944L66.86015991210937,57.371003095076475L69.64599990844727,61.40840503311814L72.43183990478516,64.45937198769255L75.21767990112305,67.67609735698319L78.00351989746095,70.61977301766488L80.78935989379882,73.06997661279226L83.57519989013672,74.01881181437618L86.36103988647461,72.16808328087593L89.1468798828125,74.32811129218284L91.9327198791504,75.48546559600436L94.71855987548828,80.52875812890224L97.50439987182617,82.33899399619291L100.29023986816406,84.29473037355771L103.07607986450195,86.23148171538394L105.86191986083985,87.56723826701703L108.64775985717773,87.05983407054737L111.43359985351563,88.82349835736419" fill="none"></path></g><g><path style="fill: none;" stroke="rgb(0, 119, 187)" stroke-width="2px" d="M27.858399963378908,3.9185545355602756L30.644239959716796,19.411793834349908L33.43007995605468,26.03231775936331L36.21591995239258,29.390593887327924L39.001759948730474,31.588954544547477L41.78759994506836,34.279984974068185L44.57343994140625,40.87605438357687L47.35927993774414,43.638110909076204L50.14511993408203,46.77938214077949L52.930959930419924,52.08841888506768L55.716799926757815,54.49586179267365L58.5026399230957,58.943112153344956L61.28847991943359,63.34151519787238L64.07431991577148,67.14571208742564L66.86015991210937,70.11828573393723L69.64599990844727,73.6319907509837L72.43183990478516,77.3015566611714L75.21767990112305,79.28262699087612L78.00351989746095,82.36588624888994L80.78935989379882,86.39737127418961L83.57519989013672,89.72229823164095L86.36103988647461,93.27872536441778L89.1468798828125,89.92301040337671L91.9327198791504,83.5422333026082L94.71855987548828,91.15097422783384L97.50439987182617,93.91484362751098L100.29023986816406,97.00933499106891L103.07607986450195,100.8104384229826L105.86191986083985,104.645249743066L108.64775985717773,107.93377264415557L111.43359985351563,110.59449721747428L114.21943984985352,112.7627255915514L117.0052798461914,113.67678832353357L119.7911198425293,115.73522209448095L122.57695983886718,117.87390833381819L125.36279983520508,119.04343589488467L128.14863983154297,119.14150467354523L130.93447982788086,120.4924855110927L133.72031982421873,122.1716351466123L136.50615982055663,123.37370958493887L139.29199981689453,125.01679459585763L142.07783981323243,126.17144501712887L144.86367980957033,126.82975748877323L147.6495198059082,125.72474896254079L150.4353598022461,125.4600153320751L153.221199798584,127.65570682135628L156.0070397949219,128.37029553609432L158.79287979125976,129.9070458335376L161.57871978759763,130.7284031944001L164.36455978393553,131.39319958411437L167.15039978027343,131.98016388532514L169.93623977661133,132.61070273884775L172.72207977294923,133.16647596125262L175.5079197692871,133.676449039004L178.293759765625,133.66362777567L181.0795997619629,131.6511908655103L183.8654397583008,132.1613548736272" fill="none"></path></g><g><path style="fill: none;" stroke="rgb(255, 112, 67)" stroke-width="2px" d="M27.858399963378908,5.856709890579538L30.644239959716796,25.03082434868304L33.43007995605468,31.807348025285393L36.21591995239258,36.78476765348452L39.001759948730474,41.66663724097651L41.78759994506836,46.37430890587777L44.57343994140625,52.89338902051665L47.35927993774414,54.52092574247648L50.14511993408203,60.69876122198845L52.930959930419924,62.434700105422294L55.716799926757815,67.04054995639704L58.5026399230957,70.58343839052692L61.28847991943359,75.35479979675537L64.07431991577148,78.08035197923627L66.86015991210937,79.5425777192557L69.64599990844727,83.10000000424075L72.43183990478516,85.9836348150255L75.21767990112305,89.89668129882854L78.00351989746095,92.72812847636736L80.78935989379882,94.93055460036008L83.57519989013672,93.57888332775342L86.36103988647461,89.91020456875908L89.1468798828125,93.47932182078048L91.9327198791504,97.63759618033195L94.71855987548828,99.67673248423357L97.50439987182617,101.03688569368487L100.29023986816406,101.16066642823733L103.07607986450195,103.85641418779943L105.86191986083985,100.81855392781257L108.64775985717773,95.59975974578761L111.43359985351563,101.25427630785634L114.21943984985352,106.12633323171362L117.0052798461914,107.7121005611812L119.7911198425293,107.51436613171195L122.57695983886718,106.21065116687664L125.36279983520508,107.57923231266514L128.14863983154297,110.95875764030097L130.93447982788086,112.8872661903869L133.72031982421873,110.43919947248187L136.50615982055663,111.24406546409509L139.29199981689453,112.38708649037471L142.07783981323243,115.71933823094018L144.86367980957033,117.33282710661165L147.6495198059082,114.55857032361365L150.4353598022461,99.03033483883436L153.221199798584,102.31566785280683L156.0070397949219,104.07302179461327L158.79287979125976,109.31160716260902L161.57871978759763,112.76354717070006L164.36455978393553,115.97120816910171L167.15039978027343,117.17281203157786L169.93623977661133,118.6154741591935L172.72207977294923,119.02791074900034L175.5079197692871,120.52382894847307L178.293759765625,121.54345110093129L181.0795997619629,122.78758036300364L183.8654397583008,123.63411931763154L186.6512797546387,124.08305253609863L189.43711975097656,122.52659205344571L192.22295974731443,116.1854474679471L195.00879974365233,120.39634917916209L197.79463973999023,121.00302559417204L200.58047973632813,122.11243130458041L203.366319732666,124.87939801907619L206.1521597290039,125.75527082077248L208.9379997253418,126.01429968334675L211.7238397216797,125.66750071031345L214.5096797180176,121.3474099730877L217.29551971435546,113.4887855569379L220.08135971069336,118.7989833121357L222.86719970703126,119.61197252293708L225.65303970336916,121.76187543910203L228.43887969970703,123.30515594076446L231.2247196960449,124.8418676664167L234.0105596923828,126.41544245274383L236.7963996887207,127.81628504453892L239.5822396850586,128.93138780848048L242.3680796813965,129.625170899144L245.15391967773436,129.87738412624557L247.93975967407226,130.26164016553543L250.72559967041016,130.5476519245156L253.51143966674806,131.76346177762332L256.29727966308593,132.4765500496908L259.08311965942386,132.62296278262247L261.8689596557617,132.0477744492092L264.6547996520996,132.9063825172463L267.44063964843747,133.0500122954561" fill="none"></path></g><g><path style="fill: none;" stroke="rgb(51, 187, 238)" stroke-width="2px" d="M27.858399963378908,2.150932782985109L30.644239959716796,17.912600889819828L33.43007995605468,26.440592452919446L36.21591995239258,31.683825721732745L39.001759948730474,37.68744013557941L41.78759994506836,39.091646187551135L44.57343994140625,44.516676021785486L47.35927993774414,48.82369477903558L50.14511993408203,53.95614214969001L52.930959930419924,59.618288212021895L55.716799926757815,64.57504878895237L58.5026399230957,67.83175767681116L61.28847991943359,71.11724112076857L64.07431991577148,75.21909652159957L66.86015991210937,76.74741888270562L69.64599990844727,80.953024687014L72.43183990478516,86.06546101248884L75.21767990112305,90.68352269249954L78.00351989746095,95.07262993539189L80.78935989379882,98.95775815685688L83.57519989013672,102.28438998747119L86.36103988647461,105.17706988324939L89.1468798828125,107.99590794230475L91.9327198791504,110.055815155669L94.71855987548828,110.79519010331454L97.50439987182617,112.22785827987768L100.29023986816406,116.76012858230851L103.07607986450195,118.89270504994866L105.86191986083985,121.50735947607676L108.64775985717773,123.40873662836135L111.43359985351563,125.76475176700444L114.21943984985352,127.75243715886857L117.0052798461914,130.10802993640004L119.7911198425293,132.04549678494965L122.57695983886718,133.4862901092905L125.36279983520508,132.32499183983748L128.14863983154297,134.79688242446412L130.93447982788086,137.15408750286008L133.72031982421873,139.49725244932588L136.50615982055663,141.33345677491872L139.29199981689453,141.73806329114913L142.07783981323243,139.1664144834154L144.86367980957033,141.07156395686144L147.6495198059082,143.5411228767211L150.4353598022461,145.38353147489903L153.221199798584,145.45332520215462L156.0070397949219,145.17024875647084L158.79287979125976,146.71291693095088L161.57871978759763,148.42482558858117L164.36455978393553,148.4527766369416L167.15039978027343,148.11839006625752L169.93623977661133,149.5308148026002L172.72207977294923,149.6708496898872L175.5079197692871,149.41467706843775L178.293759765625,150.63834592396515L181.0795997619629,151.40568349150843L183.8654397583008,151.92532651726776L186.6512797546387,152.3024033819546" fill="none"></path></g></g></g></g></g></g><g transform="translate(51, 177)" clip-path="url(#clip_1)"><clipPath id="clip_1"><rect width="278" height="22"></rect></clipPath><g><g><line x1="0" y1="0" x2="0" y2="5" style="visibility: inherit;" fill="rgb(0, 0, 0)" stroke="rgb(204, 204, 204)" stroke-width="1px"></line><line x1="27.858399963378908" y1="0" x2="27.858399963378908" y2="5" style="visibility: inherit;" fill="rgb(0, 0, 0)" stroke="rgb(204, 204, 204)" stroke-width="1px"></line><line x1="55.716799926757815" y1="0" x2="55.716799926757815" y2="5" style="visibility: inherit;" fill="rgb(0, 0, 0)" stroke="rgb(204, 204, 204)" stroke-width="1px"></line><line x1="83.57519989013672" y1="0" x2="83.57519989013672" y2="5" style="visibility: inherit;" fill="rgb(0, 0, 0)" stroke="rgb(204, 204, 204)" stroke-width="1px"></line><line x1="111.43359985351563" y1="0" x2="111.43359985351563" y2="5" style="visibility: inherit;" fill="rgb(0, 0, 0)" stroke="rgb(204, 204, 204)" stroke-width="1px"></line><line x1="139.29199981689453" y1="0" x2="139.29199981689453" y2="5" style="visibility: inherit;" fill="rgb(0, 0, 0)" stroke="rgb(204, 204, 204)" stroke-width="1px"></line><line x1="167.15039978027343" y1="0" x2="167.15039978027343" y2="5" style="visibility: inherit;" fill="rgb(0, 0, 0)" stroke="rgb(204, 204, 204)" stroke-width="1px"></line><line x1="195.00879974365233" y1="0" x2="195.00879974365233" y2="5" style="visibility: inherit;" fill="rgb(0, 0, 0)" stroke="rgb(204, 204, 204)" stroke-width="1px"></line><line x1="222.86719970703126" y1="0" x2="222.86719970703126" y2="5" style="visibility: inherit;" fill="rgb(0, 0, 0)" stroke="rgb(204, 204, 204)" stroke-width="1px"></line><line x1="250.72559967041016" y1="0" x2="250.72559967041016" y2="5" style="visibility: inherit;" fill="rgb(0, 0, 0)" stroke="rgb(204, 204, 204)" stroke-width="1px"></line><line x1="278.58399963378906" y1="0" x2="278.58399963378906" y2="5" style="visibility: inherit;" fill="rgb(0, 0, 0)" stroke="rgb(204, 204, 204)" stroke-width="1px"></line></g><g transform="translate(0, 8)"><text style="text-anchor: middle; visibility: hidden; font-family: &quot;Helvetica Neue&quot;, sans-serif; font-size: 12px; font-weight: 200;" x="0" y="0" dx="0em" dy="0.95em" fill="rgb(50, 49, 63)" stroke="none" stroke-width="1px">-10</text><text style="text-anchor: middle; visibility: inherit; font-family: &quot;Helvetica Neue&quot;, sans-serif; font-size: 12px; font-weight: 200;" x="27.858399963378908" y="0" dx="0em" dy="0.95em" fill="rgb(50, 49, 63)" stroke="none" stroke-width="1px">0</text><text style="text-anchor: middle; visibility: inherit; font-family: &quot;Helvetica Neue&quot;, sans-serif; font-size: 12px; font-weight: 200;" x="55.716799926757815" y="0" dx="0em" dy="0.95em" fill="rgb(50, 49, 63)" stroke="none" stroke-width="1px">10</text><text style="text-anchor: middle; visibility: inherit; font-family: &quot;Helvetica Neue&quot;, sans-serif; font-size: 12px; font-weight: 200;" x="83.57519989013672" y="0" dx="0em" dy="0.95em" fill="rgb(50, 49, 63)" stroke="none" stroke-width="1px">20</text><text style="text-anchor: middle; visibility: inherit; font-family: &quot;Helvetica Neue&quot;, sans-serif; font-size: 12px; font-weight: 200;" x="111.43359985351563" y="0" dx="0em" dy="0.95em" fill="rgb(50, 49, 63)" stroke="none" stroke-width="1px">30</text><text style="text-anchor: middle; visibility: inherit; font-family: &quot;Helvetica Neue&quot;, sans-serif; font-size: 12px; font-weight: 200;" x="139.29199981689453" y="0" dx="0em" dy="0.95em" fill="rgb(50, 49, 63)" stroke="none" stroke-width="1px">40</text><text style="text-anchor: middle; visibility: inherit; font-family: &quot;Helvetica Neue&quot;, sans-serif; font-size: 12px; font-weight: 200;" x="167.15039978027343" y="0" dx="0em" dy="0.95em" fill="rgb(50, 49, 63)" stroke="none" stroke-width="1px">50</text><text style="text-anchor: middle; visibility: inherit; font-family: &quot;Helvetica Neue&quot;, sans-serif; font-size: 12px; font-weight: 200;" x="195.00879974365233" y="0" dx="0em" dy="0.95em" fill="rgb(50, 49, 63)" stroke="none" stroke-width="1px">60</text><text style="text-anchor: middle; visibility: inherit; font-family: &quot;Helvetica Neue&quot;, sans-serif; font-size: 12px; font-weight: 200;" x="222.86719970703126" y="0" dx="0em" dy="0.95em" fill="rgb(50, 49, 63)" stroke="none" stroke-width="1px">70</text><text style="text-anchor: middle; visibility: inherit; font-family: &quot;Helvetica Neue&quot;, sans-serif; font-size: 12px; font-weight: 200;" x="250.72559967041016" y="0" dx="0em" dy="0.95em" fill="rgb(50, 49, 63)" stroke="none" stroke-width="1px">80</text><text style="text-anchor: middle; visibility: hidden; font-family: &quot;Helvetica Neue&quot;, sans-serif; font-size: 12px; font-weight: 200;" x="278.58399963378906" y="0" dx="0em" dy="0.95em" fill="rgb(50, 49, 63)" stroke="none" stroke-width="1px">90</text></g><line x1="0" y1="0" x2="278.58399963378906" y2="0" fill="rgb(0, 0, 0)" stroke="rgb(204, 204, 204)" stroke-width="1px"></line></g></g></g></g></svg>