<svg viewBox="0 0 330 200" xmlns="http://www.w3.org/2000/svg"><g><g><g><g><g><line x1="61.77000045776367" y1="177.95999908447266" x2="56.77000045776367" y2="177.95999908447266" style="visibility: inherit;" fill="rgb(0, 0, 0)" stroke="rgb(204, 204, 204)" stroke-width="1px"></line><line x1="61.77000045776367" y1="158.1866658528646" x2="56.77000045776367" y2="158.1866658528646" style="visibility: inherit;" fill="rgb(0, 0, 0)" stroke="rgb(204, 204, 204)" stroke-width="1px"></line><line x1="61.77000045776367" y1="138.4133326212565" x2="56.77000045776367" y2="138.4133326212565" style="visibility: inherit;" fill="rgb(0, 0, 0)" stroke="rgb(204, 204, 204)" stroke-width="1px"></line><line x1="61.77000045776367" y1="118.63999938964844" x2="56.77000045776367" y2="118.63999938964844" style="visibility: inherit;" fill="rgb(0, 0, 0)" stroke="rgb(204, 204, 204)" stroke-width="1px"></line><line x1="61.77000045776367" y1="98.86666615804036" x2="56.77000045776367" y2="98.86666615804036" style="visibility: inherit;" fill="rgb(0, 0, 0)" stroke="rgb(204, 204, 204)" stroke-width="1px"></line><line x1="61.77000045776367" y1="79.09333292643228" x2="56.77000045776367" y2="79.09333292643228" style="visibility: inherit;" fill="rgb(0, 0, 0)" stroke="rgb(204, 204, 204)" stroke-width="1px"></line><line x1="61.77000045776367" y1="59.31999969482422" x2="56.77000045776367" y2="59.31999969482422" style="visibility: inherit;" fill="rgb(0, 0, 0)" stroke="rgb(204, 204, 204)" stroke-width="1px"></line><line x1="61.77000045776367" y1="39.54666646321613" x2="56.77000045776367" y2="39.54666646321613" style="visibility: inherit;" fill="rgb(0, 0, 0)" stroke="rgb(204, 204, 204)" stroke-width="1px"></line><line x1="61.77000045776367" y1="19.773333231608063" x2="56.77000045776367" y2="19.773333231608063" style="visibility: inherit;" fill="rgb(0, 0, 0)" stroke="rgb(204, 204, 204)" stroke-width="1px"></line><line x1="61.77000045776367" y1="0" x2="56.77000045776367" y2="0" style="visibility: inherit;" fill="rgb(0, 0, 0)" stroke="rgb(204, 204, 204)" stroke-width="1px"></line></g><g transform="translate(51.77000045776367, 0)"><text style="text-anchor: end; visibility: hidden; font-family: &quot;Helvetica Neue&quot;, sans-serif; font-size: 12px; font-weight: 200;" x="0" y="177.95999908447266" dx="0em" dy="0.3em" fill="rgb(50, 49, 63)" stroke="none" stroke-width="1px">-0.16</text><text style="text-anchor: end; visibility: inherit; font-family: &quot;Helvetica Neue&quot;, sans-serif; font-size: 12px; font-weight: 200;" x="0" y="158.1866658528646" dx="0em" dy="0.3em" fill="rgb(50, 49, 63)" stroke="none" stroke-width="1px">-0.14</text><text style="text-anchor: end; visibility: hidden; font-family: &quot;Helvetica Neue&quot;, sans-serif; font-size: 12px; font-weight: 200;" x="0" y="138.4133326212565" dx="0em" dy="0.3em" fill="rgb(50, 49, 63)" stroke="none" stroke-width="1px">-0.12</text><text style="text-anchor: end; visibility: inherit; font-family: &quot;Helvetica Neue&quot;, sans-serif; font-size: 12px; font-weight: 200;" x="0" y="118.63999938964844" dx="0em" dy="0.3em" fill="rgb(50, 49, 63)" stroke="none" stroke-width="1px">-0.1</text><text style="text-anchor: end; visibility: hidden; font-family: &quot;Helvetica Neue&quot;, sans-serif; font-size: 12px; font-weight: 200;" x="0" y="98.86666615804036" dx="0em" dy="0.3em" fill="rgb(50, 49, 63)" stroke="none" stroke-width="1px">-0.08</text><text style="text-anchor: end; visibility: inherit; font-family: &quot;Helvetica Neue&quot;, sans-serif; font-size: 12px; font-weight: 200;" x="0" y="79.09333292643228" dx="0em" dy="0.3em" fill="rgb(50, 49, 63)" stroke="none" stroke-width="1px">-0.06</text><text style="text-anchor: end; visibility: hidden; font-family: &quot;Helvetica Neue&quot;, sans-serif; font-size: 12px; font-weight: 200;" x="0" y="59.31999969482422" dx="0em" dy="0.3em" fill="rgb(50, 49, 63)" stroke="none" stroke-width="1px">-0.04</text><text style="text-anchor: end; visibility: inherit; font-family: &quot;Helvetica Neue&quot;, sans-serif; font-size: 12px; font-weight: 200;" x="0" y="39.54666646321613" dx="0em" dy="0.3em" fill="rgb(50, 49, 63)" stroke="none" stroke-width="1px">-0.02</text><text style="text-anchor: end; visibility: hidden; font-family: &quot;Helvetica Neue&quot;, sans-serif; font-size: 12px; font-weight: 200;" x="0" y="19.773333231608063" dx="0em" dy="0.3em" fill="rgb(50, 49, 63)" stroke="none" stroke-width="1px">0</text><text style="text-anchor: end; visibility: hidden; font-family: &quot;Helvetica Neue&quot;, sans-serif; font-size: 12px; font-weight: 200;" x="0" y="0" dx="0em" dy="0.3em" fill="rgb(50, 49, 63)" stroke="none" stroke-width="1px">0.02</text></g><line x1="61.77000045776367" y1="0" x2="61.77000045776367" y2="177.95999908447266" fill="rgb(0, 0, 0)" stroke="rgb(204, 204, 204)" stroke-width="1px"></line></g></g><g transform="translate(61, 0)" clip-path="url(#clip_0)"><clipPath id="clip_0"><rect width="268" height="177"></rect></clipPath><g><g><g><line x1="0" y1="0" x2="0" y2="177.95999908447266" fill="rgb(0, 0, 0)" stroke="rgb(60, 60, 60)" stroke-width="1px" opacity="0.25"></line><line x1="26.822999954223633" y1="0" x2="26.822999954223633" y2="177.95999908447266" fill="rgb(0, 0, 0)" stroke="rgb(60, 60, 60)" stroke-width="1px" opacity="0.25"></line><line x1="53.645999908447266" y1="0" x2="53.645999908447266" y2="177.95999908447266" fill="rgb(0, 0, 0)" stroke="rgb(60, 60, 60)" stroke-width="1px" opacity="0.25"></line><line x1="80.4689998626709" y1="0" x2="80.4689998626709" y2="177.95999908447266" fill="rgb(0, 0, 0)" stroke="rgb(60, 60, 60)" stroke-width="1px" opacity="0.25"></line><line x1="107.29199981689453" y1="0" x2="107.29199981689453" y2="177.95999908447266" fill="rgb(0, 0, 0)" stroke="rgb(60, 60, 60)" stroke-width="1px" opacity="0.25"></line><line x1="134.11499977111816" y1="0" x2="134.11499977111816" y2="177.95999908447266" fill="rgb(0, 0, 0)" stroke="rgb(60, 60, 60)" stroke-width="1px" opacity="0.25"></line><line x1="160.9379997253418" y1="0" x2="160.9379997253418" y2="177.95999908447266" fill="rgb(0, 0, 0)" stroke="rgb(60, 60, 60)" stroke-width="1px" opacity="0.25"></line><line x1="187.76099967956543" y1="0" x2="187.76099967956543" y2="177.95999908447266" fill="rgb(0, 0, 0)" stroke="rgb(60, 60, 60)" stroke-width="1px" opacity="0.25"></line><line x1="214.58399963378906" y1="0" x2="214.58399963378906" y2="177.95999908447266" fill="rgb(0, 0, 0)" stroke="rgb(60, 60, 60)" stroke-width="1px" opacity="0.25"></line><line x1="241.4069995880127" y1="0" x2="241.4069995880127" y2="177.95999908447266" fill="rgb(0, 0, 0)" stroke="rgb(60, 60, 60)" stroke-width="1px" opacity="0.25"></line><line x1="268.2299995422363" y1="0" x2="268.2299995422363" y2="177.95999908447266" fill="rgb(0, 0, 0)" stroke="rgb(60, 60, 60)" stroke-width="1px" opacity="0.25"></line></g><g><line x1="0" y1="177.95999908447266" x2="268.2299995422363" y2="177.95999908447266" fill="rgb(0, 0, 0)" stroke="rgb(60, 60, 60)" stroke-width="1px" opacity="0.25"></line><line x1="0" y1="158.1866658528646" x2="268.2299995422363" y2="158.1866658528646" fill="rgb(0, 0, 0)" stroke="rgb(60, 60, 60)" stroke-width="1px" opacity="0.25"></line><line x1="0" y1="138.4133326212565" x2="268.2299995422363" y2="138.4133326212565" fill="rgb(0, 0, 0)" stroke="rgb(60, 60, 60)" stroke-width="1px" opacity="0.25"></line><line x1="0" y1="118.63999938964844" x2="268.2299995422363" y2="118.63999938964844" fill="rgb(0, 0, 0)" stroke="rgb(60, 60, 60)" stroke-width="1px" opacity="0.25"></line><line x1="0" y1="98.86666615804036" x2="268.2299995422363" y2="98.86666615804036" fill="rgb(0, 0, 0)" stroke="rgb(60, 60, 60)" stroke-width="1px" opacity="0.25"></line><line x1="0" y1="79.09333292643228" x2="268.2299995422363" y2="79.09333292643228" fill="rgb(0, 0, 0)" stroke="rgb(60, 60, 60)" stroke-width="1px" opacity="0.25"></line><line x1="0" y1="59.31999969482422" x2="268.2299995422363" y2="59.31999969482422" fill="rgb(0, 0, 0)" stroke="rgb(60, 60, 60)" stroke-width="1px" opacity="0.25"></line><line x1="0" y1="39.54666646321613" x2="268.2299995422363" y2="39.54666646321613" fill="rgb(0, 0, 0)" stroke="rgb(60, 60, 60)" stroke-width="1px" opacity="0.25"></line><line x1="0" y1="19.773333231608063" x2="268.2299995422363" y2="19.773333231608063" fill="rgb(0, 0, 0)" stroke="rgb(60, 60, 60)" stroke-width="1px" opacity="0.25"></line><line x1="0" y1="0" x2="268.2299995422363" y2="0" fill="rgb(0, 0, 0)" stroke="rgb(60, 60, 60)" stroke-width="1px" opacity="0.25"></line></g></g></g><g><g><line x1="0" y1="19.773333231608063" x2="268.2299995422363" y2="19.773333231608063" fill="rgb(0, 0, 0)" stroke="rgb(153, 153, 153)" stroke-width="1.5px"></line></g></g><g><g><line x1="26.822999954223633" y1="0" x2="26.822999954223633" y2="177.95999908447266" fill="rgb(0, 0, 0)" stroke="rgb(153, 153, 153)" stroke-width="1.5px"></line></g></g><g><g><g><g><g><path style="fill: none;" stroke="rgb(204, 51, 17)" stroke-width="2px" d="M80.4689998626709,121.06169326152283L83.15129985809327,106.45000305883907L85.83359985351562,90.22931938879704L88.51589984893799,88.44445931352514L91.19819984436036,92.19249899681752L93.88049983978271,90.12566305763221L96.56279983520507,89.0849526088004L99.24509983062744,87.55328151979896L101.92739982604981,87.1687468796769L104.60969982147218,88.8312332604035L107.29199981689453,82.86997769101652" fill="none"></path></g><g><path style="fill: none;" stroke="rgb(0, 119, 187)" stroke-width="2px" d="M80.4689998626709,152.4147059550794L83.15129985809327,132.84577988528474L85.83359985351562,127.91814117128786L88.51589984893799,117.12078591770683L91.19819984436036,103.32393082709828L93.88049983978271,111.23252880211771L96.56279983520507,105.06963249869817L99.24509983062744,105.60425225447428L101.92739982604981,106.66538164517567L104.60969982147218,104.29455244768724L107.29199981689453,105.71149589613351L109.97429981231689,102.83842849714702L112.65659980773925,99.25189144750935L115.33889980316162,94.60401138909158L118.02119979858398,93.13390650360603L120.70349979400635,90.92261318021993L123.38579978942872,86.90208522216565L126.06809978485107,83.87386480276096L128.75039978027343,81.0880382905106L131.4326997756958,77.30504258678457L134.11499977111816,73.89110157861387L136.79729976654053,70.81408784357275L139.4795997619629,78.067600198698L142.16189975738527,89.38777465074088L144.84419975280764,75.37443236962858L147.52649974822998,70.50387387949444L150.20879974365235,69.05843451596064L152.8910997390747,64.09474222657389L155.57339973449706,60.39902792335752L158.25569972991943,56.43136307364638L160.9379997253418,53.22153782276516L163.62029972076417,50.67856928452977L166.30259971618653,50.22261070317283L168.98489971160888,47.80605066302138L171.66719970703124,45.18677627383829L174.3494997024536,43.28533781517402L177.03179969787598,39.891250397578375" fill="none"></path></g><g><path style="fill: none;" stroke="rgb(255, 112, 67)" stroke-width="2px" d="M80.4689998626709,163.02074043767234L83.15129985809327,130.01143628767215L85.83359985351562,113.21360076576634L88.51589984893799,110.94878506444934L91.19819984436036,109.78511162982059L93.88049983978271,105.49360545583677L96.56279983520507,97.1970844159983L99.24509983062744,94.77876570976771L101.92739982604981,89.17891509887563L104.60969982147218,81.5017538968002L107.29199981689453,65.70188679263012L109.97429981231689,69.0977807562191L112.65659980773925,69.2597179921719L115.33889980316162,67.42673123699201L118.02119979858398,64.75720503632465L120.70349979400635,56.93958626441898L123.38579978942872,54.50309528921571L126.06809978485107,53.64509459295728L128.75039978027343,52.19299992135021L131.4326997756958,44.714137066989394L134.11499977111816,48.18225235653813L136.79729976654053,55.9203665309207L139.4795997619629,55.539441299714966L142.16189975738527,51.446949830623566L144.84419975280764,43.70611386727242L147.52649974822998,16.546424059034536L150.20879974365235,21.630791687163992L152.8910997390747,20.12167879963596L155.57339973449706,33.43175183722599L158.25569972991943,47.375915929232775L160.9379997253418,43.440914388679346L163.62029972076417,37.53813860987776L166.30259971618653,37.3079982776874L168.98489971160888,38.28926765457956L171.66719970703124,42.79160198151615L174.3494997024536,42.23041071489624L177.03179969787598,38.79629384749725L179.71409969329835,37.056284361081225L182.39639968872072,41.71520258125645L185.07869968414306,37.91774714344308L187.76099967956543,25.881808487937917L190.44329967498777,27.294841896852773L193.12559967041014,25.67569926883624L195.8078996658325,31.92135508317662L198.49019966125488,61.343462913951385L201.17249965667725,57.46860038716376L203.85479965209962,55.059014240668546L206.53709964752198,46.07667051755698L209.21939964294435,33.57779110013044L211.90169963836672,15.781133148557814L214.58399963378906,22.38852102407614L217.26629962921143,21.375889037329927L219.94859962463377,24.170060120876315L222.63089962005614,24.24622739630317L225.3131996154785,25.07780436491447L227.99549961090088,25.607614491232766L230.67779960632325,26.499038129903028L233.36009960174562,27.570363640409283L236.04239959716796,31.189176356053224L238.72469959259033,41.79253048421876L241.4069995880127,35.638567467867176L244.08929958343506,35.12287869355026L246.77159957885743,35.29399598228261L249.4538995742798,31.9909752407209L252.13619956970214,30.81786670069272L254.8184995651245,29.476289920261877L257.50079956054685,31.414809530936054" fill="none"></path></g><g><path style="fill: none;" stroke="rgb(51, 187, 238)" stroke-width="2px" d="M80.4689998626709,175.45681890225728L83.15129985809327,155.45895509652888L85.83359985351562,146.39631859884517L88.51589984893799,142.49744245355294L91.19819984436036,136.155224822257L93.88049983978271,135.08605160597062L96.56279983520507,128.66558346259652L99.24509983062744,129.02783552726567L101.92739982604981,124.20347747126068L104.60969982147218,119.30254101710409L107.29199981689453,114.38891270261513L109.97429981231689,112.9404274399244L112.65659980773925,110.85332724782305L115.33889980316162,108.04500822511136L118.02119979858398,108.70298873827926L120.70349979400635,104.25665365406563L123.38579978942872,94.16731710705804L126.06809978485107,90.71586771071998L128.75039978027343,87.44818879120824L131.4326997756958,84.96842910585272L134.11499977111816,82.57153850276018L136.79729976654053,78.57025090407221L139.4795997619629,69.90134199003624L142.16189975738527,69.65246219604349L144.84419975280764,72.43492238201883L147.52649974822998,73.09386049347063L150.20879974365235,65.9173611387951L152.8910997390747,62.032539589854665L155.57339973449706,60.30858644851088L158.25569972991943,60.003886040705794L160.9379997253418,56.25992351626077L163.62029972076417,52.525595903780186L166.30259971618653,51.008804418882846L168.98489971160888,48.11819823901919L171.66719970703124,45.38916098807604L174.3494997024536,49.224633077761325L177.03179969787598,46.483393814838735L179.71409969329835,43.52824919370869" fill="none"></path></g></g></g></g></g></g><g transform="translate(61, 177)" clip-path="url(#clip_1)"><clipPath id="clip_1"><rect width="268" height="22"></rect></clipPath><g><g><line x1="0" y1="0" x2="0" y2="5" style="visibility: inherit;" fill="rgb(0, 0, 0)" stroke="rgb(204, 204, 204)" stroke-width="1px"></line><line x1="26.822999954223633" y1="0" x2="26.822999954223633" y2="5" style="visibility: inherit;" fill="rgb(0, 0, 0)" stroke="rgb(204, 204, 204)" stroke-width="1px"></line><line x1="53.645999908447266" y1="0" x2="53.645999908447266" y2="5" style="visibility: inherit;" fill="rgb(0, 0, 0)" stroke="rgb(204, 204, 204)" stroke-width="1px"></line><line x1="80.4689998626709" y1="0" x2="80.4689998626709" y2="5" style="visibility: inherit;" fill="rgb(0, 0, 0)" stroke="rgb(204, 204, 204)" stroke-width="1px"></line><line x1="107.29199981689453" y1="0" x2="107.29199981689453" y2="5" style="visibility: inherit;" fill="rgb(0, 0, 0)" stroke="rgb(204, 204, 204)" stroke-width="1px"></line><line x1="134.11499977111816" y1="0" x2="134.11499977111816" y2="5" style="visibility: inherit;" fill="rgb(0, 0, 0)" stroke="rgb(204, 204, 204)" stroke-width="1px"></line><line x1="160.9379997253418" y1="0" x2="160.9379997253418" y2="5" style="visibility: inherit;" fill="rgb(0, 0, 0)" stroke="rgb(204, 204, 204)" stroke-width="1px"></line><line x1="187.76099967956543" y1="0" x2="187.76099967956543" y2="5" style="visibility: inherit;" fill="rgb(0, 0, 0)" stroke="rgb(204, 204, 204)" stroke-width="1px"></line><line x1="214.58399963378906" y1="0" x2="214.58399963378906" y2="5" style="visibility: inherit;" fill="rgb(0, 0, 0)" stroke="rgb(204, 204, 204)" stroke-width="1px"></line><line x1="241.4069995880127" y1="0" x2="241.4069995880127" y2="5" style="visibility: inherit;" fill="rgb(0, 0, 0)" stroke="rgb(204, 204, 204)" stroke-width="1px"></line><line x1="268.2299995422363" y1="0" x2="268.2299995422363" y2="5" style="visibility: inherit;" fill="rgb(0, 0, 0)" stroke="rgb(204, 204, 204)" stroke-width="1px"></line></g><g transform="translate(0, 8)"><text style="text-anchor: middle; visibility: hidden; font-family: &quot;Helvetica Neue&quot;, sans-serif; font-size: 12px; font-weight: 200;" x="0" y="0" dx="0em" dy="0.95em" fill="rgb(50, 49, 63)" stroke="none" stroke-width="1px">-10</text><text style="text-anchor: middle; visibility: inherit; font-family: &quot;Helvetica Neue&quot;, sans-serif; font-size: 12px; font-weight: 200;" x="26.822999954223633" y="0" dx="0em" dy="0.95em" fill="rgb(50, 49, 63)" stroke="none" stroke-width="1px">0</text><text style="text-anchor: middle; visibility: inherit; font-family: &quot;Helvetica Neue&quot;, sans-serif; font-size: 12px; font-weight: 200;" x="53.645999908447266" y="0" dx="0em" dy="0.95em" fill="rgb(50, 49, 63)" stroke="none" stroke-width="1px">10</text><text style="text-anchor: middle; visibility: inherit; font-family: &quot;Helvetica Neue&quot;, sans-serif; font-size: 12px; font-weight: 200;" x="80.4689998626709" y="0" dx="0em" dy="0.95em" fill="rgb(50, 49, 63)" stroke="none" stroke-width="1px">20</text><text style="text-anchor: middle; visibility: inherit; font-family: &quot;Helvetica Neue&quot;, sans-serif; font-size: 12px; font-weight: 200;" x="107.29199981689453" y="0" dx="0em" dy="0.95em" fill="rgb(50, 49, 63)" stroke="none" stroke-width="1px">30</text><text style="text-anchor: middle; visibility: inherit; font-family: &quot;Helvetica Neue&quot;, sans-serif; font-size: 12px; font-weight: 200;" x="134.11499977111816" y="0" dx="0em" dy="0.95em" fill="rgb(50, 49, 63)" stroke="none" stroke-width="1px">40</text><text style="text-anchor: middle; visibility: inherit; font-family: &quot;Helvetica Neue&quot;, sans-serif; font-size: 12px; font-weight: 200;" x="160.9379997253418" y="0" dx="0em" dy="0.95em" fill="rgb(50, 49, 63)" stroke="none" stroke-width="1px">50</text><text style="text-anchor: middle; visibility: inherit; font-family: &quot;Helvetica Neue&quot;, sans-serif; font-size: 12px; font-weight: 200;" x="187.76099967956543" y="0" dx="0em" dy="0.95em" fill="rgb(50, 49, 63)" stroke="none" stroke-width="1px">60</text><text style="text-anchor: middle; visibility: inherit; font-family: &quot;Helvetica Neue&quot;, sans-serif; font-size: 12px; font-weight: 200;" x="214.58399963378906" y="0" dx="0em" dy="0.95em" fill="rgb(50, 49, 63)" stroke="none" stroke-width="1px">70</text><text style="text-anchor: middle; visibility: inherit; font-family: &quot;Helvetica Neue&quot;, sans-serif; font-size: 12px; font-weight: 200;" x="241.4069995880127" y="0" dx="0em" dy="0.95em" fill="rgb(50, 49, 63)" stroke="none" stroke-width="1px">80</text><text style="text-anchor: middle; visibility: hidden; font-family: &quot;Helvetica Neue&quot;, sans-serif; font-size: 12px; font-weight: 200;" x="268.2299995422363" y="0" dx="0em" dy="0.95em" fill="rgb(50, 49, 63)" stroke="none" stroke-width="1px">90</text></g><line x1="0" y1="0" x2="268.2299995422363" y2="0" fill="rgb(0, 0, 0)" stroke="rgb(204, 204, 204)" stroke-width="1px"></line></g></g></g></g></svg>